<svg width="400" height="300" viewBox="0 0 400 300" fill="none" xmlns="http://www.w3.org/2000/svg">
<rect width="400" height="300" fill="#F58023"/>
<path d="M206.668 110.039C215.734 110.039 223.943 112.119 231.294 116.277C238.768 120.435 244.648 126.428 248.936 134.255C253.347 141.96 255.552 150.949 255.552 161.223C255.552 171.496 253.347 180.546 248.936 188.373C244.648 196.201 238.768 202.255 231.294 206.535C223.943 210.694 215.734 212.773 206.668 212.773C193.559 212.773 183.757 208.92 177.264 201.215V225H144V75H178.918V120.313C185.656 113.464 194.906 110.039 206.668 110.039ZM199.317 185.071C205.443 185.071 210.466 182.992 214.386 178.834C218.307 174.554 220.267 168.683 220.267 161.223C220.267 153.885 218.307 148.136 214.386 143.978C210.466 139.82 205.443 137.741 199.317 137.741C193.191 137.741 188.167 139.82 184.247 143.978C180.326 148.136 178.366 153.885 178.366 161.223C178.366 168.683 180.326 174.554 184.247 178.834C188.167 182.992 193.191 185.071 199.317 185.071Z" fill="#F2F2F2"/>
</svg>
