<svg width="400" height="300" viewBox="0 0 400 300" fill="none" xmlns="http://www.w3.org/2000/svg">
<rect width="400" height="300" fill="black"/>
<path fill-rule="evenodd" clip-rule="evenodd" d="M273.809 162C268.065 197.717 237.1 225 199.763 225C162.427 225 131.462 197.717 125.718 162H149.155C154.572 184.934 175.175 202 199.763 202C224.352 202 244.955 184.934 250.372 162H273.809ZM274.527 144C271.47 105.384 239.165 75 199.763 75C160.362 75 128.057 105.384 125 144H148.106C151.081 118.107 173.074 98 199.763 98C226.453 98 248.446 118.107 251.421 144H274.527Z" fill="white"/>
</svg>
