<svg width="400" height="300" viewBox="0 0 400 300" fill="none" xmlns="http://www.w3.org/2000/svg">
<rect width="400" height="300" fill="#DF5151"/>
<path d="M157.856 152.168V131.528H179.552V152.168H157.856ZM124.16 152.168V131.528H145.76V152.168H124.16ZM157.856 120.296V103.688H145.76V120.296H112.64V168.68H124.16V163.4H145.76V193.352H157.856V163.4H179.552V168.2H191.552V120.296H157.856ZM264.608 129.992C260.48 140.84 255.008 149.864 248.096 157.352C240.704 149.576 235.04 140.36 230.912 129.992H264.608ZM291.872 129.992V118.856H253.76V103.688H242.144V118.856H204.512V129.992H218.24C223.424 144.008 230.048 156.008 238.688 165.896C228.992 173.288 216.992 178.76 202.784 182.504C205.088 185.288 208.64 190.664 209.984 193.64C224.576 189.032 236.96 182.792 247.424 174.44C257.504 182.984 269.984 189.416 285.44 193.352C287.168 190.088 290.816 184.712 293.6 181.928C279.008 178.664 266.912 173 257.024 165.416C265.856 155.816 272.864 144.2 278.048 129.992H291.872Z" fill="white"/>
</svg>
