<svg width="400" height="300" viewBox="0 0 400 300" fill="none" xmlns="http://www.w3.org/2000/svg">
<rect width="400" height="300" fill="#5DA9D3"/>
<path d="M80.0682 177H97.9318L106.114 146.489H106.693L114.875 177H132.705L146.375 124.636H129.636L122.784 157.943H122.341L114.568 124.636H98.2386L90.6705 158.182H90.2273L83.1705 124.636H66.4318L80.0682 177ZM148.265 177H164.936V124.636H148.265V177ZM156.618 118.534C161.356 118.534 165.174 114.955 165.174 110.557C165.174 106.159 161.356 102.614 156.618 102.614C151.913 102.614 148.061 106.159 148.061 110.557C148.061 114.955 151.913 118.534 156.618 118.534ZM170.747 196.636H187.417V168.511H187.758C189.872 173.352 194.576 177.75 202.485 177.75C214.076 177.75 223.417 168.682 223.417 150.852C223.417 132.375 213.531 123.955 202.588 123.955C194.303 123.955 189.769 128.795 187.758 133.602H187.247V124.636H170.747V196.636ZM187.076 150.818C187.076 142.261 190.622 136.977 196.724 136.977C202.894 136.977 206.303 142.398 206.303 150.818C206.303 159.273 202.894 164.761 196.724 164.761C190.622 164.761 187.076 159.307 187.076 150.818ZM227.353 196.636H244.023V168.511H244.364C246.478 173.352 251.182 177.75 259.091 177.75C270.682 177.75 280.023 168.682 280.023 150.852C280.023 132.375 270.137 123.955 259.194 123.955C250.91 123.955 246.376 128.795 244.364 133.602H243.853V124.636H227.353V196.636ZM243.682 150.818C243.682 142.261 247.228 136.977 253.33 136.977C259.501 136.977 262.91 142.398 262.91 150.818C262.91 159.273 259.501 164.761 253.33 164.761C247.228 164.761 243.682 159.307 243.682 150.818ZM292.465 196.636C304.465 196.636 310.431 190.568 313.328 182.011L333.067 124.67L315.51 124.636L305.726 162H305.181L295.533 124.636H278.078L296.692 178.909L296.044 180.477C294.442 184.398 290.828 184.466 285.919 182.864L282.238 194.966C284.76 195.989 288.476 196.636 292.465 196.636Z" fill="white"/>
</svg>
