<svg id="svg" xmlns="http://www.w3.org/2000/svg" xmlns:xlink="http://www.w3.org/1999/xlink" width="400" height="243.35154826958106" viewBox="0, 0, 400,243.35154826958106"><g id="svgg"><path id="path0" d="M338.980 1.465 C 322.679 3.728,305.121 11.495,282.993 26.231 C 262.831 39.657,261.121 40.257,238.251 41.903 C 213.252 43.702,170.426 48.465,136.311 53.240 C 98.997 58.463,96.682 57.975,89.742 43.439 C 74.705 11.943,49.956 3.648,23.606 21.272 C -5.660 40.846,-5.730 87.709,23.472 111.204 C 30.720 117.035,30.513 115.880,31.718 157.377 C 33.502 218.815,35.129 237.674,38.928 240.941 C 41.701 243.327,44.776 243.132,47.511 240.398 C 50.001 237.907,49.979 239.411,47.764 222.587 C 46.604 213.780,45.520 189.986,44.445 149.727 C 43.477 113.501,42.403 109.132,32.698 101.938 C 7.265 83.084,8.887 42.653,35.612 29.276 C 53.613 20.266,66.327 25.909,77.276 47.767 C 88.664 70.500,95.528 72.424,141.348 65.727 C 165.435 62.207,216.163 56.485,233.337 55.352 C 264.169 53.317,267.920 52.079,291.734 36.078 C 320.815 16.537,348.378 9.065,368.306 15.319 C 393.143 23.114,390.291 41.467,360.490 65.631 C 341.030 81.410,336.719 88.672,331.245 114.894 C 326.674 136.788,324.443 169.140,324.153 217.736 L 324.029 238.386 325.928 240.285 C 328.471 242.828,332.625 242.805,334.833 240.238 C 336.514 238.284,337.339 224.469,337.342 198.243 C 337.346 153.766,342.630 112.478,350.484 95.558 C 353.574 88.901,356.000 86.177,366.360 77.724 C 399.040 51.064,406.833 28.584,389.090 12.156 C 378.864 2.689,359.667 -1.407,338.980 1.465 M253.496 112.148 C 249.443 116.201,252.238 123.133,257.923 123.133 C 261.058 123.133,264.481 119.710,264.481 116.576 C 264.481 113.441,261.058 110.018,257.923 110.018 C 256.355 110.018,254.949 110.694,253.496 112.148 M174.874 115.496 C 159.882 118.521,155.720 122.006,159.928 128.013 C 161.458 130.197,169.035 145.423,169.035 146.313 C 169.035 147.102,162.746 153.619,158.968 156.747 C 154.387 160.538,156.893 167.577,162.823 167.577 C 166.327 167.577,170.153 165.027,175.325 159.244 C 180.388 153.581,179.377 153.754,185.536 157.497 C 202.118 167.577,212.022 168.597,212.022 160.224 C 212.022 156.610,210.406 154.780,205.640 152.998 C 203.340 152.138,199.272 150.286,196.601 148.883 L 191.745 146.333 196.026 138.183 C 207.722 115.914,202.193 109.983,174.874 115.496 M99.762 119.434 C 95.709 123.486,98.503 130.419,104.189 130.419 C 107.324 130.419,110.747 126.996,110.747 123.862 C 110.747 122.293,110.071 120.887,108.617 119.434 C 107.164 117.980,105.758 117.304,104.189 117.304 C 102.621 117.304,101.215 117.980,99.762 119.434 " stroke="none" fill="#000000" fill-rule="evenodd"></path></g></svg>